<?xml version="1.0" encoding="utf-8"?>
<!-- Generator: Adobe Illustrator 19.0.0, SVG Export Plug-In . SVG Version: 6.00 Build 0)  -->
<svg version="1.1" id="Calque_1" xmlns="http://www.w3.org/2000/svg" xmlns:xlink="http://www.w3.org/1999/xlink" x="0px" y="0px"
	 viewBox="-264 379.4 66 82.5" style="enable-background:new -264 379.4 66 82.5;" xml:space="preserve">
<style type="text/css">
	.st0{fill:#69F0AE;}
</style>
<g>
	<path class="st0" d="M-257,408.5c-1.7,0-3,1.3-3,3v30.4c0,1.7,1.3,3,3,3h52c1.7,0,3-1.3,3-3v-30.4c0-1.7-1.3-3-3-3h-13.6v-3.3h1.4
		c0.6,0,1-0.4,1-1v-3c0-1.1-0.9-2-2-2h-0.6v-2.4c0-2.2-1.8-4-4-4c-0.4,0-0.7-0.3-0.7-0.7v-2.2h1.2c0.6,0,1-0.4,1-1v-8
		c0-0.6-0.4-1-1-1H-242c-0.6,0-1,0.4-1,1v8.1c0,0.6,0.4,1,1,1h1.2v9.2h-3.1c-1.1,0-2,0.9-2,2v3c0,0.6,0.4,1,1,1h1.4v3.3
		C-243.5,408.5-257,408.5-257,408.5z M-205,442.9h-52c-0.6,0-1-0.4-1-1v-28.4l8.4,15.6c0.2,0.3,0.5,0.5,0.9,0.5h13.3v3.1
		c0,1.1,0.9,2,2,2h4.8c1.1,0,2-0.9,2-2v-3.1h10.5c0.3,0,0.6-0.2,0.8-0.4l11.3-16.4v29.1C-204,442.5-204.4,442.9-205,442.9z
		 M-233.4,428.7L-233.4,428.7L-233.4,428.7v-4.1h4.8v8.2h-4.8C-233.4,432.8-233.4,428.7-233.4,428.7z M-204.9,410.5l-11.7,17.2h-10
		v-3.1c0-1.1-0.9-2-2-2h-4.8c-1.1,0-2,0.9-2,2v3.1h-12.7l-9.2-17.2c0.1,0,0.2-0.1,0.3-0.1h52C-205,410.5-204.9,410.5-204.9,410.5z
		 M-218.2,403.1h-3.1v-1.9h1.5l0,0h1.5v1.9H-218.2z M-241,381.9h17.7v6.1c-5.1,0-12.6,0-17.7,0V381.9z M-225.4,390v2.2
		c0,1.5,1.2,2.7,2.7,2.7c1.1,0,2,0.9,2,2v2.4h-1.5c-0.6,0-1,0.4-1,1v3.1c0,0.7-0.5,1.2-1.1,1.3c-0.7,0.1-1.3-0.5-1.3-1.2
		c0-0.6-0.4-1-1-1c-0.6,0-1,0.4-1,1c0,0.7-0.5,1.2-1.2,1.2s-1.2-0.5-1.2-1.2c0-0.6-0.4-1-1-1s-1,0.4-1,1c0,0.7-0.5,1.2-1.2,1.2
		s-1.2-0.5-1.2-1.2c0-0.6-0.4-1-1-1c-0.6,0-1,0.4-1,1c0,0.7-0.5,1.2-1.2,1.2c-0.7,0-1.2-0.5-1.2-1.2V390H-225.4z M-243.8,401.2h3.1
		v1.9h-3.1V401.2z M-241.4,405.1h1.1c0.6,0.9,1.6,1.6,2.7,1.6c0.8,0,1.6-0.3,2.2-0.9c0.6,0.5,1.3,0.9,2.2,0.9c0.8,0,1.6-0.3,2.2-0.9
		c0.6,0.5,1.3,0.9,2.2,0.9c0.9,0,1.6-0.3,2.2-0.9c0.6,0.5,1.3,0.9,2.2,0.9c0.1,0,0.2,0,0.3,0c1-0.1,1.9-0.7,2.4-1.5h1.2v3.3h-20.9
		V405.1z"/>
</g>
</svg>
