<?xml version="1.0" encoding="utf-8"?>
<!-- Generator: Adobe Illustrator 19.0.0, SVG Export Plug-In . SVG Version: 6.00 Build 0)  -->
<svg version="1.1" id="Calque_1" xmlns="http://www.w3.org/2000/svg" xmlns:xlink="http://www.w3.org/1999/xlink" x="0px" y="0px"
	 viewBox="-566 425.2 66 66.8" style="enable-background:new -566 425.2 66 66.8;" xml:space="preserve">
<style type="text/css">
	.st0{fill:#69F0AE;}
</style>
<g>
	<path class="st0" d="M-559,455.6c-1.7,0-3,1.3-3,3V489c0,1.7,1.3,3,3,3h52c1.7,0,3-1.3,3-3v-30.4c0-1.7-1.3-3-3-3h-13.6v-3.3h1.4
		c0.6,0,1-0.4,1-1v-3c0-1.1-0.9-2-2-2h-0.6v-2.4c0-2.2-1.8-4-4-4c-0.4,0-0.7-0.3-0.7-0.7V437h1.2c0.6,0,1-0.4,1-1v-8
		c0-0.6-0.4-1-1-1H-544c-0.6,0-1,0.4-1,1v8.1c0,0.6,0.4,1,1,1h1.2v9.2h-3.1c-1.1,0-2,0.9-2,2v3c0,0.6,0.4,1,1,1h1.4v3.3
		C-545.5,455.6-559,455.6-559,455.6z M-507,490h-52c-0.6,0-1-0.4-1-1v-28.4l8.4,15.6c0.2,0.3,0.5,0.5,0.9,0.5h13.3v3.1
		c0,1.1,0.9,2,2,2h4.8c1.1,0,2-0.9,2-2v-3.1h10.5c0.3,0,0.6-0.2,0.8-0.4l11.3-16.4V489C-506,489.6-506.4,490-507,490z M-535.4,475.8
		L-535.4,475.8L-535.4,475.8v-4.1h4.8v8.2h-4.8C-535.4,479.9-535.4,475.8-535.4,475.8z M-506.9,457.6l-11.7,17.2h-10v-3.1
		c0-1.1-0.9-2-2-2h-4.8c-1.1,0-2,0.9-2,2v3.1h-12.7l-9.2-17.2c0.1,0,0.2-0.1,0.3-0.1h52C-507,457.6-506.9,457.6-506.9,457.6z
		 M-520.2,450.2h-3.1v-1.9h1.5l0,0h1.5L-520.2,450.2L-520.2,450.2z M-543,429h17.7v6.1c-5.1,0-12.6,0-17.7,0V429z M-527.4,437.1v2.2
		c0,1.5,1.2,2.7,2.7,2.7c1.1,0,2,0.9,2,2v2.4h-1.5c-0.6,0-1,0.4-1,1v3.1c0,0.7-0.5,1.2-1.1,1.3c-0.7,0.1-1.3-0.5-1.3-1.2
		c0-0.6-0.4-1-1-1c-0.6,0-1,0.4-1,1c0,0.7-0.5,1.2-1.2,1.2s-1.2-0.5-1.2-1.2c0-0.6-0.4-1-1-1s-1,0.4-1,1c0,0.7-0.5,1.2-1.2,1.2
		s-1.2-0.5-1.2-1.2c0-0.6-0.4-1-1-1c-0.6,0-1,0.4-1,1c0,0.7-0.5,1.2-1.2,1.2c-0.7,0-1.2-0.5-1.2-1.2v-13.5H-527.4z M-545.8,448.3
		h3.1v1.9h-3.1V448.3z M-543.4,452.2h1.1c0.6,0.9,1.6,1.6,2.7,1.6c0.8,0,1.6-0.3,2.2-0.9c0.6,0.5,1.3,0.9,2.2,0.9
		c0.8,0,1.6-0.3,2.2-0.9c0.6,0.5,1.3,0.9,2.2,0.9c0.9,0,1.6-0.3,2.2-0.9c0.6,0.5,1.3,0.9,2.2,0.9c0.1,0,0.2,0,0.3,0
		c1-0.1,1.9-0.7,2.4-1.5h1.2v3.3h-20.9V452.2L-543.4,452.2z"/>
</g>
</svg>
