<?xml version="1.0" encoding="utf-8"?>
<!-- Generator: Adobe Illustrator 19.0.0, SVG Export Plug-In . SVG Version: 6.00 Build 0)  -->
<svg version="1.1"
	 id="Calque_1" xmlns:dc="http://purl.org/dc/elements/1.1/" xmlns:sodipodi="http://sodipodi.sourceforge.net/DTD/sodipodi-0.dtd" xmlns:svg="http://www.w3.org/2000/svg" xmlns:rdf="http://www.w3.org/1999/02/22-rdf-syntax-ns#" xmlns:inkscape="http://www.inkscape.org/namespaces/inkscape" xmlns:cc="http://creativecommons.org/ns#"
	 xmlns="http://www.w3.org/2000/svg" xmlns:xlink="http://www.w3.org/1999/xlink" x="0px" y="0px" viewBox="-291 413 12.7 15.9"
	 style="enable-background:new -291 413 12.7 15.9;" xml:space="preserve">
<g transform="translate(0,-284.29998)">
	<path d="M-283.9,702.3l-0.8,1.5l1.6-0.3C-283.3,703.1-283.6,702.7-283.9,702.3L-283.9,702.3z M-283.9,702.5
		c0.2,0.3,0.4,0.6,0.6,0.9l-1.1,0.2L-283.9,702.5z"/>
	<path d="M-280.8,697.8c-1.9,0-3.6,1.1-4.5,2.8l0-0.1l-1.5,2.8l-2.2,5.2c-0.1,0.3,0,0.8,0.4,0.9c0.3,0.1,0.7,0,0.9-0.4l1.4-3.2
		c0,0,0.1-0.1,0.1,0c0,0,0,0,0,0l1.5,3.1c0.2,0.3,0.6,0.5,0.9,0.3c0.3-0.2,0.5-0.6,0.3-0.9l-1.6-3.4c0,0,0-0.1,0-0.1c0,0,0,0,0,0
		l2.6-0.5c0.3-0.1,0.5-0.3,0.4-0.6c0,0,0-0.1,0-0.1c-0.4-1.1-1.1-2.1-2-2.9c0,0,0-0.1,0-0.1c0.7-1,1.9-1.7,3.2-1.7
		c0.3,0,0.5-0.3,0.5-0.6C-280.3,698.1-280.5,697.8-280.8,697.8L-280.8,697.8z M-280.8,698c0.2,0,0.4,0.2,0.4,0.4
		c0,0.2-0.2,0.4-0.4,0.4c-1.3,0-2.6,0.7-3.3,1.7c-0.1,0.1-0.1,0.2,0,0.3c0.9,0.8,1.6,1.8,2,2.9c0.1,0.2,0,0.5-0.2,0.5
		c0,0-0.1,0-0.1,0l-2.6,0.5c-0.1,0-0.2,0.1-0.2,0.2c0,0,0,0,0,0.1l1.6,3.4c0.1,0.3,0,0.6-0.3,0.7c-0.3,0.1-0.6,0-0.7-0.2l-1.5-3.1
		c-0.1-0.1-0.2-0.2-0.3-0.1c0,0-0.1,0.1-0.1,0.1l-1.4,3.2c-0.1,0.3-0.4,0.4-0.7,0.3c-0.3-0.1-0.4-0.4-0.3-0.7l2.2-5.2l1.5-2.8
		C-284.3,699-282.6,698-280.8,698L-280.8,698z"/>
	<path d="M-282.2,699.8c-0.5,0-1,0.5-1,1c0,0.5,0.4,1,1,1c0.5,0,1-0.4,1-1l0,0C-281.2,700.2-281.6,699.8-282.2,699.8
		C-282.2,699.8-282.2,699.8-282.2,699.8z M-282.2,699.9c0.5,0,0.9,0.4,0.9,0.8c0,0,0,0,0,0c0,0.5-0.4,0.9-0.9,0.9
		c-0.5,0-0.9-0.4-0.9-0.9C-283,700.3-282.7,699.9-282.2,699.9z"/>
</g>
</svg>
