<?xml version="1.0" encoding="utf-8"?>
<!-- Generator: Adobe Illustrator 19.0.0, SVG Export Plug-In . SVG Version: 6.00 Build 0)  -->
<svg version="1.1" id="Calque_1" xmlns="http://www.w3.org/2000/svg" xmlns:xlink="http://www.w3.org/1999/xlink" x="0px" y="0px"
	 viewBox="-265 380.9 64 80" style="enable-background:new -265 380.9 64 80;" xml:space="preserve">
<style type="text/css">
	.st0{fill:#69F0AE;}
</style>
<title>Outline</title>
<g>
	<path class="st0" d="M-205.7,403.9l-27-8c-0.2-0.1-0.4-0.1-0.6,0l-27,8c-0.5,0.2-0.8,0.7-0.7,1.2c0.1,0.3,0.4,0.6,0.7,0.7l12.3,3.6
		v13.4c0,3.4,7.8,5,15,5c7.2,0,15-1.6,15-5v-13.4l5-1.5v13.9c-0.5,0-0.9,0.4-1,0.8l-1,6c-0.1,0.5,0.3,1.1,0.8,1.2c0.1,0,0.1,0,0.2,0
		h4c0.6,0,1-0.4,1-1c0-0.1,0-0.1,0-0.2l-1-6c-0.1-0.5-0.5-0.8-1-0.8v-14.5l5.3-1.6c0.5-0.2,0.8-0.7,0.7-1.2
		C-205.1,404.3-205.4,404-205.7,403.9z M-212.8,427.9l0.7-4h0.3l0.7,4H-212.8z M-220,422.9c0,0.9-4.4,3-13,3s-13-2.1-13-3v-12.8
		l12.7,3.8c0.2,0.1,0.4,0.1,0.6,0l12.7-3.8V422.9z M-212.1,405.7l-20.8-1.8c-0.5-0.1-1,0.3-1.1,0.9c-0.1,0.5,0.3,1,0.9,1.1
		c0,0,0,0,0.1,0l15.7,1.3l-1.9,0.6h0l-13.7,4.1l-13.7-4.1h0l-9.8-2.9l23.5-7l23.5,7L-212.1,405.7z"/>
</g>
</svg>
