<?xml version="1.0" encoding="utf-8"?>
<!-- Generator: Adobe Illustrator 19.0.0, SVG Export Plug-In . SVG Version: 6.00 Build 0)  -->
<svg version="1.1" id="Calque_1" xmlns="http://www.w3.org/2000/svg" xmlns:xlink="http://www.w3.org/1999/xlink" x="0px" y="0px"
	 viewBox="-247 358.9 100 125" style="enable-background:new -247 358.9 100 125;" xml:space="preserve">
<g>
	<path d="M-186.7,381.5c2-2,2.8-4.8,2.3-7.6c-0.6-3.3-3.3-6-6.6-6.6c-2.8-0.5-5.6,0.3-7.6,2.3c-2,2-2.8,4.8-2.3,7.6
		c0.6,3.3,3.3,6,6.6,6.6c0.6,0.1,1.1,0.2,1.7,0.2C-190.4,384-188.3,383.1-186.7,381.5z M-187.4,380.8c-1.8,1.8-4.2,2.5-6.7,2
		c-2.9-0.6-5.3-2.9-5.8-5.8c-0.5-2.5,0.3-4.9,2-6.7c1.4-1.4,3.3-2.2,5.2-2.2c0.5,0,1,0,1.5,0.1c2.9,0.6,5.3,2.9,5.8,5.8
		C-184.9,376.6-185.7,379.1-187.4,380.8z"/>
	<path d="M-221.1,450c1.9,1.2,4.5,0.7,5.7-1.3l10-15.2c0.3-0.4,0.4-0.8,0.5-1.3l2.8-13.2l11.1,11.3l3.2,17c0.4,2,2.1,3.4,4.1,3.4
		c0.3,0,0.5,0,0.8-0.1c1.1-0.2,2-0.8,2.7-1.7c0.1-0.2,0.3-0.4,0.4-0.6l-0.1,0.6c-0.1,0.4,0.1,0.9,0.3,1.2c0.3,0.3,0.7,0.6,1.1,0.6
		c0.4,0.1,0.9-0.1,1.2-0.3c0.3-0.3,0.6-0.7,0.6-1.1l4.2-35c0.3-0.2,0.5-0.5,0.7-0.7c1.2-1.5,1.1-3.6,0-5.1l0.3-2.7
		c0.1-0.9-0.5-1.7-1.4-1.8c-0.9-0.1-1.7,0.5-1.8,1.4l-0.1,0.8l-8-5.4c-0.2-0.5-0.4-1.3-0.7-2.1c-0.9-2.8-2.2-6.6-3.4-9.2
		c-1.8-3.9-4.9-4.5-9.6-5.5l-0.4-0.1c-1.7-0.4-3.2-0.1-4.4,0.7c-0.3,0.2-0.5,0.4-0.7,0.6l0.4-1.4c0.3-1.1,0.2-2.2-0.4-3.2
		c-0.6-1-1.5-1.7-2.6-2l-4.7-1.3c-2.3-0.6-4.6,0.7-5.3,2.9l-0.7,2.4c-0.3,1.1-0.2,2.2,0.4,3.2c-1,0.5-1.7,1.4-2,2.4l-3.4,12
		c-0.3,1-0.2,2.1,0.4,3c0.5,0.9,1.4,1.6,2.4,1.9l5.2,1.5c0.4,0.1,0.7,0.2,1.1,0.2c0.8,0,1.5-0.2,2.1-0.6c-0.3,1-0.6,2-0.9,3.1
		c-0.1,0.4-0.2,0.8-0.3,1.2l-3,19.2l-9.4,14.5C-223.7,446-223.1,448.7-221.1,450z M-202.5,383.4l-0.7,2.4c-0.3,1-1,1.8-2,2.1
		l-0.6,0.3l0.4,0.5c0.6,0.7,0.8,1.7,0.6,2.6c-0.6,2-1.6,5.7-3.5,12.4c-0.6,1.4-2.1,2.2-3.6,1.8l-5.2-1.5c-0.8-0.2-1.4-0.7-1.8-1.4
		c-0.4-0.7-0.5-1.5-0.3-2.3l3.4-12c0.3-0.9,1-1.7,1.9-2l0.7-0.2l-0.4-0.5c-0.6-0.8-0.8-1.9-0.6-2.9l0.7-2.4c0.2-0.8,0.8-1.5,1.6-2
		c0.5-0.3,1-0.4,1.6-0.4c0.3,0,0.6,0,0.9,0.1l4.7,1.3c0.8,0.2,1.5,0.8,2,1.6C-202.4,381.7-202.3,382.6-202.5,383.4z M-182.4,427.4
		c-0.2-0.8-0.5-1.6-1.1-2.2l-12.5-13.8l3.4-14.1c1,2.8,2,5.8,2.4,7.2l0,0.1c0.3,0.8,0.7,1.4,1.4,1.9l11.3,7.7c0.5,0.4,1,0.6,1.7,0.7
		l-3.7,30.7c0,0,0,0,0,0L-182.4,427.4z M-221.6,444.7l9.5-14.8l3-19.3c0.1-0.4,0.1-0.8,0.2-1.1c0.4-1.3,5-17.7,5-17.8
		c0.3-1.1,0.5-1.9,0.6-2.1l0,0l0-0.1c0,0,0.5-2.7,2.5-4c1-0.7,2.2-0.8,3.6-0.6l0.4,0.1c4.7,1,7.3,1.5,8.9,4.9
		c1.2,2.5,2.5,6.5,3.4,9.1c0.3,0.9,0.6,1.8,0.8,2.3l0.1,0.2l9.6,6.5l0.3-2.4c0-0.3,0.4-0.6,0.7-0.6c0.3,0,0.6,0.4,0.6,0.7l-0.4,3.1
		l0.1,0.2c1,1.1,1.1,2.8,0.1,4c-0.2,0.2-0.4,0.4-0.7,0.6l-0.2,0.1l0,0.2l-4.3,35.2c0,0.2-0.1,0.3-0.2,0.4c-0.1,0.1-0.3,0.2-0.5,0.1
		c-0.2,0-0.3-0.1-0.4-0.2c-0.1-0.1-0.2-0.3-0.1-0.5l4.2-34.8l-0.5,0c-0.6,0-1.2-0.3-1.7-0.6l-11.3-7.7c-0.5-0.4-0.8-0.9-1-1.4l0-0.1
		c-0.5-1.5-1.4-4.4-2.5-7.3c-0.1-0.4-0.5-0.7-0.9-0.7c0,0,0,0-0.1,0c-0.4,0-0.8,0.3-0.9,0.8l-3.5,14.6l12.9,14.2
		c0.5,0.5,0.7,1,0.9,1.6l2.8,18.3c0.2,0.8,0,1.7-0.5,2.4c-0.5,0.7-1.2,1.2-2,1.3c-1.7,0.3-3.4-0.8-3.7-2.5l-3.3-17.3l-11.3-11.5
		c-0.3-0.3-0.6-0.4-1-0.3c-0.4,0.1-0.6,0.4-0.7,0.8l-2.8,13.2c-0.1,0.3-0.2,0.7-0.4,1l-10,15.2c-0.9,1.5-2.9,1.9-4.4,1
		C-222.1,448.2-222.6,446.1-221.6,444.7z"/>
</g>
</svg>
