<?xml version="1.0" encoding="utf-8"?>
<!-- Generator: Adobe Illustrator 19.0.0, SVG Export Plug-In . SVG Version: 6.00 Build 0)  -->
<svg version="1.1" id="Calque_1" xmlns="http://www.w3.org/2000/svg" xmlns:xlink="http://www.w3.org/1999/xlink" x="0px" y="0px"
	 viewBox="-247 358.9 100 125" style="enable-background:new -247 358.9 100 125;" xml:space="preserve">
<path d="M-186.5,391.6c-13.4,0-24.3,10.9-24.3,24.3s10.9,24.3,24.3,24.3s24.3-10.9,24.3-24.3C-162.3,402.4-173.1,391.6-186.5,391.6z
	 M-186.5,438.1c-12.3,0-22.3-10-22.3-22.3c0-12.3,10-22.3,22.3-22.3s22.3,10,22.3,22.3C-164.3,428.1-174.2,438.1-186.5,438.1z"/>
<path d="M-186.5,400.6c-8.4,0-15.2,6.8-15.2,15.2c0,8.4,6.8,15.2,15.2,15.2s15.2-6.8,15.2-15.2
	C-171.3,407.4-178.1,400.6-186.5,400.6z M-186.5,429c-7.3,0-13.2-5.9-13.2-13.2s5.9-13.2,13.2-13.2s13.2,5.9,13.2,13.2
	C-173.3,423.1-179.2,429-186.5,429z"/>
<path d="M-162.3,392.1h-1.4l-9.4-9.4c-0.3-0.4-0.7-0.8-1.1-1.1c0,0-0.1-0.1-0.2-0.1c-1.2-0.9-2.7-1.4-4.2-1.4h-16
	c-1.8,0-3.5,0.7-4.8,1.9c-0.1,0.1-0.2,0.2-0.2,0.2l-9.9,9.9h-10.8c-0.9-1.5-2.3-2.5-3.9-3v-0.8c0-1.7-1.3-3-3-3h-6.1
	c-1.7,0-3,1.3-3,3v1.3c0,0,0,0,0,0c-2.2,1.2-3.7,3.5-3.7,6.2v40.8c0,3.9,3.1,7,7,7h70.6c3.9,0,7-3.1,7-7v-37.5
	C-155.3,395.2-158.4,392.1-162.3,392.1z M-234.2,388.2c0-0.6,0.4-1,1-1h6.1c0.6,0,1,0.4,1,1v0.5c0,0,0,0,0,0h-6.7
	c-0.4,0-0.9,0-1.3,0.1L-234.2,388.2L-234.2,388.2z M-157.3,436.6c0,2.8-2.2,5-5,5h-70.6c-2.8,0-5-2.2-5-5v-40.8c0-2.8,2.2-5,5-5h6.7
	c1.9,0,3.6,1.1,4.5,2.8c0.2,0.3,0.5,0.6,0.9,0.6h11.8c0.3,0,0.5-0.1,0.7-0.3l10.2-10.2c0.1-0.1,0.1-0.1,0.2-0.2
	c0.9-0.9,2.2-1.4,3.4-1.4h16c1.1,0,2.2,0.4,3.1,1.1c0,0,0,0,0,0c0.3,0.2,0.6,0.5,0.8,0.8c0,0,0.1,0.1,0.1,0.1l9.7,9.7
	c0.2,0.2,0.4,0.3,0.7,0.3h1.8c2.8,0,5,2.2,5,5V436.6z"/>
</svg>
