<?xml version="1.0" encoding="utf-8"?>
<!-- Generator: Adobe Illustrator 19.0.0, SVG Export Plug-In . SVG Version: 6.00 Build 0)  -->
<svg version="1.1" id="Calque_1" xmlns="http://www.w3.org/2000/svg" xmlns:xlink="http://www.w3.org/1999/xlink" x="0px" y="0px"
	 viewBox="-265 380.9 64 80" style="enable-background:new -265 380.9 64 80;" xml:space="preserve">
<style type="text/css">
	.st0{fill:#69F0AE;}
</style>
<path class="st0" d="M-240,432.9c-3.9,0-7,3.1-7,7v2c0,0.6,0.4,1,1,1h26c0.6,0,1-0.4,1-1v-2c0-3.9-3.1-7-7-7h-2v-2.5
	c2.4-1.6,4-4.4,4-7.5c0-5-4-9-9-9s-9,4-9,9c0,3.1,1.6,5.9,4,7.5v2.5H-240z M-221,439.9v1h-24v-1c0-2.8,2.2-5,5-5h2.6l3.7,3.7
	c0.4,0.4,1,0.4,1.4,0l3.7-3.7h2.6C-223.2,434.9-221,437.1-221,439.9z M-233,415.9c3.1,0,5.7,2,6.6,4.8c-2,0.6-4.4,0-5.9-1.6
	c-0.4-0.4-1.1-0.4-1.4,0c-1.1,1.1-2.7,1.8-4.3,1.8c-0.6,0-1.1-0.1-1.6-0.2C-238.7,417.9-236.1,415.9-233,415.9z M-240,422.9
	c0-0.1,0-0.2,0-0.3c2.4,0.6,5.1,0.1,7-1.5c1.4,1.1,3.2,1.8,5,1.8c0.7,0,1.3-0.1,2-0.3c0,0.1,0,0.2,0,0.3c0,3.9-3.1,7-7,7
	S-240,426.8-240,422.9z M-233,431.9c1.1,0,2.1-0.2,3-0.5v2.1l-3,3l-3-3v-2.1C-235.1,431.7-234.1,431.9-233,431.9z"/>
<path class="st0" d="M-215.7,397.2l1.4,1.4l4-4c0.2-0.2,0.3-0.4,0.3-0.7v-2v-2c0-0.6-0.4-1-1-1h-2c-0.6,0-1,0.4-1,1v2
	c0,0.6,0.4,1,1,1h1v0.6L-215.7,397.2z"/>
<path class="st0" d="M-221.7,397.2l1.4,1.4l4-4c0.2-0.2,0.3-0.4,0.3-0.7v-2v-2c0-0.6-0.4-1-1-1h-2c-0.6,0-1,0.4-1,1v2
	c0,0.6,0.4,1,1,1h1v0.6L-221.7,397.2z"/>
<path class="st0" d="M-255,398.9h2c0.6,0,1-0.4,1-1v-2c0-0.6-0.4-1-1-1h-1v-0.6l3.7-3.7l-1.4-1.4l-4,4c-0.2,0.2-0.3,0.4-0.3,0.7v2v2
	C-256,398.4-255.6,398.9-255,398.9z"/>
<path class="st0" d="M-249,398.9h2c0.6,0,1-0.4,1-1v-2c0-0.6-0.4-1-1-1h-1v-0.6l3.7-3.7l-1.4-1.4l-4,4c-0.2,0.2-0.3,0.4-0.3,0.7v2v2
	C-250,398.4-249.6,398.9-249,398.9z"/>
<path class="st0" d="M-239.5,398.9c0.8,0,1.5-0.7,1.5-1.5c0-0.8-0.7-1.5-1.5-1.5s-1.5,0.7-1.5,1.5
	C-241,398.2-240.3,398.9-239.5,398.9z"/>
<path class="st0" d="M-233.5,398.9c0.8,0,1.5-0.7,1.5-1.5c0-0.8-0.7-1.5-1.5-1.5s-1.5,0.7-1.5,1.5
	C-235,398.2-234.3,398.9-233.5,398.9z"/>
<path class="st0" d="M-227.5,398.9c0.8,0,1.5-0.7,1.5-1.5c0-0.8-0.7-1.5-1.5-1.5s-1.5,0.7-1.5,1.5
	C-229,398.2-228.3,398.9-227.5,398.9z"/>
<path class="st0" d="M-259,405.9h21.5l3.7,5.6c0.2,0.3,0.5,0.4,0.8,0.4s0.6-0.2,0.8-0.4l3.7-5.6h21.5c2.2,0,4-1.8,4-4v-15
	c0-2.2-1.8-4-4-4h-52c-2.2,0-4,1.8-4,4v15C-263,404.1-261.2,405.9-259,405.9z M-261,386.9c0-1.1,0.9-2,2-2h52c1.1,0,2,0.9,2,2v15
	c0,1.1-0.9,2-2,2h-22c-0.3,0-0.6,0.2-0.8,0.4l-3.2,4.8l-3.2-4.8c-0.2-0.3-0.5-0.4-0.8-0.4h-22c-1.1,0-2-0.9-2-2V386.9z"/>
</svg>
