<?xml version="1.0" encoding="utf-8"?>
<!-- Generator: Adobe Illustrator 19.0.0, SVG Export Plug-In . SVG Version: 6.00 Build 0)  -->
<svg version="1.1" id="Calque_1" xmlns="http://www.w3.org/2000/svg" xmlns:xlink="http://www.w3.org/1999/xlink" x="0px" y="0px"
	 viewBox="-567 431 64 60" style="enable-background:new -567 431 64 60;" xml:space="preserve">
<style type="text/css">
	.st0{fill:#69F0AE;}
</style>
<path class="st0" d="M-542,481c-3.9,0-7,3.1-7,7v2c0,0.6,0.4,1,1,1h26c0.6,0,1-0.4,1-1v-2c0-3.9-3.1-7-7-7h-2v-2.5
	c2.4-1.6,4-4.4,4-7.5c0-5-4-9-9-9s-9,4-9,9c0,3.1,1.6,5.9,4,7.5v2.5H-542z M-523,488v1h-24v-1c0-2.8,2.2-5,5-5h2.6l3.7,3.7
	c0.4,0.4,1,0.4,1.4,0l3.7-3.7h2.6C-525.2,483-523,485.2-523,488z M-535,464c3.1,0,5.7,2,6.6,4.8c-2,0.6-4.4,0-5.9-1.6
	c-0.4-0.4-1.1-0.4-1.4,0c-1.1,1.1-2.7,1.8-4.3,1.8c-0.6,0-1.1-0.1-1.6-0.2C-540.7,466-538.1,464-535,464z M-542,471
	c0-0.1,0-0.2,0-0.3c2.4,0.6,5.1,0.1,7-1.5c1.4,1.1,3.2,1.8,5,1.8c0.7,0,1.3-0.1,2-0.3c0,0.1,0,0.2,0,0.3c0,3.9-3.1,7-7,7
	S-542,474.9-542,471z M-535,480c1.1,0,2.1-0.2,3-0.5v2.1l-3,3l-3-3v-2.1C-537.1,479.8-536.1,480-535,480z"/>
<path class="st0" d="M-517.7,445.3l1.4,1.4l4-4c0.2-0.2,0.3-0.4,0.3-0.7v-2v-2c0-0.6-0.4-1-1-1h-2c-0.6,0-1,0.4-1,1v2
	c0,0.6,0.4,1,1,1h1v0.6L-517.7,445.3z"/>
<path class="st0" d="M-523.7,445.3l1.4,1.4l4-4c0.2-0.2,0.3-0.4,0.3-0.7v-2v-2c0-0.6-0.4-1-1-1h-2c-0.6,0-1,0.4-1,1v2
	c0,0.6,0.4,1,1,1h1v0.6L-523.7,445.3z"/>
<path class="st0" d="M-557,447h2c0.6,0,1-0.4,1-1v-2c0-0.6-0.4-1-1-1h-1v-0.6l3.7-3.7l-1.4-1.4l-4,4c-0.2,0.2-0.3,0.4-0.3,0.7v2v2
	C-558,446.5-557.6,447-557,447z"/>
<path class="st0" d="M-551,447h2c0.6,0,1-0.4,1-1v-2c0-0.6-0.4-1-1-1h-1v-0.6l3.7-3.7l-1.4-1.4l-4,4c-0.2,0.2-0.3,0.4-0.3,0.7v2v2
	C-552,446.5-551.6,447-551,447z"/>
<path class="st0" d="M-541.5,447c0.8,0,1.5-0.7,1.5-1.5s-0.7-1.5-1.5-1.5s-1.5,0.7-1.5,1.5C-543,446.3-542.3,447-541.5,447z"/>
<path class="st0" d="M-535.5,447c0.8,0,1.5-0.7,1.5-1.5s-0.7-1.5-1.5-1.5s-1.5,0.7-1.5,1.5C-537,446.3-536.3,447-535.5,447z"/>
<path class="st0" d="M-529.5,447c0.8,0,1.5-0.7,1.5-1.5s-0.7-1.5-1.5-1.5s-1.5,0.7-1.5,1.5C-531,446.3-530.3,447-529.5,447z"/>
<path class="st0" d="M-561,454h21.5l3.7,5.6c0.2,0.3,0.5,0.4,0.8,0.4s0.6-0.2,0.8-0.4l3.7-5.6h21.5c2.2,0,4-1.8,4-4v-15
	c0-2.2-1.8-4-4-4h-52c-2.2,0-4,1.8-4,4v15C-565,452.2-563.2,454-561,454z M-563,435c0-1.1,0.9-2,2-2h52c1.1,0,2,0.9,2,2v15
	c0,1.1-0.9,2-2,2h-22c-0.3,0-0.6,0.2-0.8,0.4l-3.2,4.8l-3.2-4.8c-0.2-0.3-0.5-0.4-0.8-0.4h-22c-1.1,0-2-0.9-2-2V435z"/>
</svg>
