<?xml version="1.0" encoding="utf-8"?>
<!-- Generator: Adobe Illustrator 19.0.0, SVG Export Plug-In . SVG Version: 6.00 Build 0)  -->
<svg version="1.1" id="Calque_1" xmlns="http://www.w3.org/2000/svg" xmlns:xlink="http://www.w3.org/1999/xlink" x="0px" y="0px"
	 viewBox="-247 358.9 100 125" style="enable-background:new -247 358.9 100 125;" xml:space="preserve">
<g>
	<path d="M-159.1,444.7c1.9-2.4,3.1-5.5,3.1-8.8c0-7.7-6.2-14-14-14c-7.7,0-14,6.2-14,14c0,7.7,6.2,14,14,14c3.3,0,6.4-1.2,8.8-3.1
		l6.7,6.7c0.6,0.6,1.5,0.6,2.1,0c0.6-0.6,0.6-1.5,0-2.1L-159.1,444.7z M-177.8,443.7c-2-2-3.2-4.8-3.2-7.8c0-3.1,1.2-5.8,3.2-7.8
		c2-2,4.8-3.2,7.8-3.2c3.1,0,5.8,1.2,7.8,3.2c2,2,3.2,4.8,3.2,7.8c0,3.1-1.2,5.8-3.2,7.8l0,0l0,0c-2,2-4.8,3.2-7.8,3.2
		C-173,446.9-175.8,445.7-177.8,443.7z"/>
	<path d="M-159.9,383.4c-8.2-11.8-21.7-19.5-37.1-19.5c-14,0-26.6,6.5-34.8,16.5l0,0l0,0l0,0c-0.1,0.1-0.1,0.2-0.2,0.3
		c-6.3,7.7-10,17.5-10,28.1c0,5.7,1,11.1,3,16.1c0,0.1,0.1,0.2,0.1,0.4c0.1,0.1,0.2,0.5,0.4,0.9c0,0.1,0.1,0.3,0.2,0.4
		c3.4,8,9.1,14.8,16.1,19.7l0.2,0.1c7.1,4.8,15.8,7.6,25,7.6c2.3,0,4.5-0.2,6.7-0.5c0.8-0.1,1.3-0.9,1.2-1.7
		c-0.1-0.8-0.9-1.3-1.7-1.2c-2,0.3-4.1,0.5-6.2,0.5c-7.9,0-15.2-2.2-21.5-5.9l5.6-3.3c3.8-2.3,6.4-6.3,6.8-10.7l0.4-4.1
		c0-0.3,0-0.6,0-0.9c0-2.3-0.9-4.4-2.4-5.9c-1.5-1.5-3.6-2.5-5.9-2.5h-3.3c-1.6,0-3.1-0.7-4.1-1.9l0,0c-1.7-1.9-3.9-2.8-6.2-2.8
		c-1.5,0-3.1,0.4-4.4,1.3c-1.3,0.8-2.5,2.1-3.2,3.6l0,0l-1.8,4c-1.4-4.1-2.1-8.5-2.1-13.1c0-9,2.8-17.3,7.7-24.2l0.7,2.8
		c0.7,2.6,3,4.4,5.7,4.4h5.6c2.2,0,4.2-1.2,5.2-3.2l1.9-3.6c0.5-1,1.6-1.6,2.6-1.6c0.6,0,1.2,0.2,1.7,0.5l2.7,1.9
		c0.8,0.6,1.3,1.5,1.3,2.4c0,0.7-0.2,1.3-0.7,1.9c-0.9,1.1-1.3,2.4-1.3,3.7c0,2.1,1.1,4.1,3.1,5.2l4.4,2.4c0.8,0.4,1.3,1.2,1.5,2
		l2.1,10.4c0.3,1.5,1.1,2.7,2.1,3.5c1,0.8,2.3,1.3,3.6,1.3c1.4,0,2.8-0.5,3.9-1.5l7.1-6.5c1.2-1.1,1.9-2.7,1.9-4.3
		c0-0.2,0-0.4,0-0.5l-0.7-7.2c0-0.1,0-0.2,0-0.3c0-1,0.5-1.9,1.4-2.5l0,0l13.9-9.4c4.2,6.6,6.6,14.3,6.6,22.6c0,2.1-0.2,4.2-0.5,6.2
		l0,0.2v0.1c0,0.8,0.6,1.5,1.5,1.5c0.8,0,1.4-0.6,1.4-1.3c0.4-2.2,0.5-4.4,0.5-6.6C-152,399.4-154.9,390.6-159.9,383.4L-159.9,383.4
		z M-232.6,419.2c0.5-1,1.2-1.8,2.1-2.4c0.9-0.5,1.9-0.8,2.9-0.8c1.5,0,2.9,0.6,4,1.9l0,0c1.6,1.8,3.9,2.8,6.3,2.8h3.3
		c1.5,0,2.9,0.6,3.9,1.6c1,1,1.6,2.4,1.6,3.8c0,0.2,0,0.4,0,0.6l-0.4,4.1c-0.4,3.5-2.4,6.7-5.4,8.5l-6.8,4
		c-6.2-4.5-11.2-10.6-14.3-17.6L-232.6,419.2z M-177.1,393.2L-177.1,393.2c-1.7,1.1-2.7,2.9-2.7,4.9c0,0.2,0,0.4,0,0.5l0.7,7.2
		c0,0.1,0,0.2,0,0.3c0,0.8-0.3,1.6-1,2.2l-7.1,6.5c-0.6,0.5-1.3,0.8-2,0.8c-0.7,0-1.3-0.2-1.9-0.6c-0.5-0.4-0.9-1-1.1-1.8l-2.1-10.4
		c-0.3-1.7-1.4-3.2-2.9-4l-4.4-2.4c-1-0.5-1.5-1.6-1.5-2.6c0-0.6,0.2-1.3,0.7-1.8c0.9-1.1,1.3-2.4,1.3-3.7c0-1.8-0.9-3.7-2.5-4.8
		l-2.7-1.9c-1-0.7-2.2-1-3.3-1c-2.1,0-4.2,1.1-5.2,3.2l-1.9,3.6c-0.5,1-1.5,1.6-2.6,1.6h-5.6c-1.4,0-2.5-0.9-2.9-2.2l-1.3-5
		c7.8-9.1,19.3-15,32.1-15c13.8,0,26.1,6.7,33.8,17.1L-177.1,393.2z"/>
</g>
</svg>
